<mxfile host="app.diagrams.net" modified="2023-04-01T16:02:25.393Z" agent="Mozilla/5.0 (Macintosh; Intel Mac OS X 10_15_7) AppleWebKit/537.36 (KHTML, like Gecko) Chrome/111.0.0.0 Safari/537.36" etag="T6SDpWhkqONth3-3aVNs" version="21.1.2" type="device">
  <diagram name="第 1 页" id="I38yXg-rBwA-8RqLyA7M">
    <mxGraphModel dx="1662" dy="1038" grid="0" gridSize="10" guides="1" tooltips="1" connect="1" arrows="1" fold="1" page="1" pageScale="1" pageWidth="1654" pageHeight="2336" math="0" shadow="0">
      <root>
        <mxCell id="0" />
        <mxCell id="1" parent="0" />
        <mxCell id="rgSda22hF-nhAcSKTV3Q-83" value="" style="rounded=0;whiteSpace=wrap;html=1;" vertex="1" parent="1">
          <mxGeometry x="67" y="1421" width="936" height="273" as="geometry" />
        </mxCell>
        <mxCell id="rgSda22hF-nhAcSKTV3Q-82" value="" style="rounded=0;whiteSpace=wrap;html=1;" vertex="1" parent="1">
          <mxGeometry x="67" y="1148" width="936" height="273" as="geometry" />
        </mxCell>
        <mxCell id="d_Lw-T-FiMXY5c3B9-YE-43" style="rounded=0;orthogonalLoop=1;jettySize=auto;html=1;exitX=1;exitY=0;exitDx=0;exitDy=0;entryX=0;entryY=0;entryDx=0;entryDy=0;" parent="1" source="d_Lw-T-FiMXY5c3B9-YE-1" target="d_Lw-T-FiMXY5c3B9-YE-4" edge="1">
          <mxGeometry relative="1" as="geometry" />
        </mxCell>
        <mxCell id="d_Lw-T-FiMXY5c3B9-YE-1" value="&lt;font style=&quot;font-size: 20px;&quot;&gt;进程A&lt;/font&gt;" style="whiteSpace=wrap;html=1;aspect=fixed;" parent="1" vertex="1">
          <mxGeometry x="130" y="190" width="80" height="80" as="geometry" />
        </mxCell>
        <mxCell id="d_Lw-T-FiMXY5c3B9-YE-4" value="&lt;font style=&quot;font-size: 20px;&quot;&gt;...&lt;/font&gt;" style="rounded=0;whiteSpace=wrap;html=1;" parent="1" vertex="1">
          <mxGeometry x="280" y="190" width="120" height="40" as="geometry" />
        </mxCell>
        <mxCell id="d_Lw-T-FiMXY5c3B9-YE-5" value="&lt;font style=&quot;font-size: 20px;&quot;&gt;进程地址空间&lt;br&gt;mm_struct&lt;br&gt;&lt;/font&gt;" style="text;html=1;align=center;verticalAlign=middle;resizable=0;points=[];autosize=1;strokeColor=none;fillColor=none;" parent="1" vertex="1">
          <mxGeometry x="270" y="130" width="140" height="60" as="geometry" />
        </mxCell>
        <mxCell id="d_Lw-T-FiMXY5c3B9-YE-6" value="&lt;font style=&quot;font-size: 20px;&quot;&gt;task_struct&lt;/font&gt;" style="text;html=1;align=center;verticalAlign=middle;resizable=0;points=[];autosize=1;strokeColor=none;fillColor=none;" parent="1" vertex="1">
          <mxGeometry x="110" y="150" width="120" height="40" as="geometry" />
        </mxCell>
        <mxCell id="d_Lw-T-FiMXY5c3B9-YE-8" value="&lt;font style=&quot;font-size: 20px;&quot;&gt;...&lt;/font&gt;" style="rounded=0;whiteSpace=wrap;html=1;" parent="1" vertex="1">
          <mxGeometry x="280" y="270" width="120" height="40" as="geometry" />
        </mxCell>
        <mxCell id="d_Lw-T-FiMXY5c3B9-YE-11" value="&lt;span style=&quot;font-size: 20px;&quot;&gt;共享内存&lt;/span&gt;" style="rounded=0;whiteSpace=wrap;html=1;" parent="1" vertex="1">
          <mxGeometry x="280" y="230" width="120" height="40" as="geometry" />
        </mxCell>
        <mxCell id="d_Lw-T-FiMXY5c3B9-YE-12" value="&lt;font style=&quot;font-size: 20px;&quot;&gt;...&lt;/font&gt;" style="rounded=0;whiteSpace=wrap;html=1;" parent="1" vertex="1">
          <mxGeometry x="600" y="120" width="120" height="80" as="geometry" />
        </mxCell>
        <mxCell id="d_Lw-T-FiMXY5c3B9-YE-13" value="&lt;font style=&quot;font-size: 20px;&quot;&gt;物理内存&lt;br&gt;&lt;/font&gt;" style="text;html=1;align=center;verticalAlign=middle;resizable=0;points=[];autosize=1;strokeColor=none;fillColor=none;" parent="1" vertex="1">
          <mxGeometry x="610" y="80" width="100" height="40" as="geometry" />
        </mxCell>
        <mxCell id="d_Lw-T-FiMXY5c3B9-YE-14" value="&lt;font style=&quot;font-size: 20px;&quot;&gt;...&lt;/font&gt;" style="rounded=0;whiteSpace=wrap;html=1;" parent="1" vertex="1">
          <mxGeometry x="600" y="280" width="120" height="80" as="geometry" />
        </mxCell>
        <mxCell id="d_Lw-T-FiMXY5c3B9-YE-15" value="&lt;span style=&quot;font-size: 20px;&quot;&gt;共享区&lt;/span&gt;" style="rounded=0;whiteSpace=wrap;html=1;" parent="1" vertex="1">
          <mxGeometry x="600" y="200" width="120" height="80" as="geometry" />
        </mxCell>
        <mxCell id="d_Lw-T-FiMXY5c3B9-YE-45" style="rounded=0;orthogonalLoop=1;jettySize=auto;html=1;exitX=0;exitY=0;exitDx=0;exitDy=0;entryX=1;entryY=0.5;entryDx=0;entryDy=0;targetPerimeterSpacing=6;sourcePerimeterSpacing=6;startArrow=classic;startFill=1;endArrow=none;endFill=0;" parent="1" source="d_Lw-T-FiMXY5c3B9-YE-17" target="d_Lw-T-FiMXY5c3B9-YE-11" edge="1">
          <mxGeometry relative="1" as="geometry" />
        </mxCell>
        <mxCell id="d_Lw-T-FiMXY5c3B9-YE-17" value="" style="rounded=0;whiteSpace=wrap;html=1;" parent="1" vertex="1">
          <mxGeometry x="440" y="270" width="40" height="20" as="geometry" />
        </mxCell>
        <mxCell id="d_Lw-T-FiMXY5c3B9-YE-19" value="&lt;font style=&quot;font-size: 20px;&quot;&gt;页表&lt;br&gt;&lt;/font&gt;" style="text;html=1;align=center;verticalAlign=middle;resizable=0;points=[];autosize=1;strokeColor=none;fillColor=none;" parent="1" vertex="1">
          <mxGeometry x="450" y="230" width="60" height="40" as="geometry" />
        </mxCell>
        <mxCell id="d_Lw-T-FiMXY5c3B9-YE-20" value="" style="rounded=0;whiteSpace=wrap;html=1;" parent="1" vertex="1">
          <mxGeometry x="480" y="270" width="40" height="20" as="geometry" />
        </mxCell>
        <mxCell id="d_Lw-T-FiMXY5c3B9-YE-22" value="" style="rounded=0;whiteSpace=wrap;html=1;" parent="1" vertex="1">
          <mxGeometry x="440" y="290" width="40" height="20" as="geometry" />
        </mxCell>
        <mxCell id="d_Lw-T-FiMXY5c3B9-YE-23" value="" style="rounded=0;whiteSpace=wrap;html=1;" parent="1" vertex="1">
          <mxGeometry x="480" y="290" width="40" height="20" as="geometry" />
        </mxCell>
        <mxCell id="d_Lw-T-FiMXY5c3B9-YE-24" value="" style="rounded=0;whiteSpace=wrap;html=1;" parent="1" vertex="1">
          <mxGeometry x="440" y="310" width="40" height="20" as="geometry" />
        </mxCell>
        <mxCell id="d_Lw-T-FiMXY5c3B9-YE-25" value="" style="rounded=0;whiteSpace=wrap;html=1;" parent="1" vertex="1">
          <mxGeometry x="480" y="310" width="40" height="20" as="geometry" />
        </mxCell>
        <mxCell id="d_Lw-T-FiMXY5c3B9-YE-26" value="" style="rounded=0;whiteSpace=wrap;html=1;" parent="1" vertex="1">
          <mxGeometry x="440" y="330" width="40" height="20" as="geometry" />
        </mxCell>
        <mxCell id="d_Lw-T-FiMXY5c3B9-YE-27" value="" style="rounded=0;whiteSpace=wrap;html=1;" parent="1" vertex="1">
          <mxGeometry x="480" y="330" width="40" height="20" as="geometry" />
        </mxCell>
        <mxCell id="d_Lw-T-FiMXY5c3B9-YE-44" style="rounded=0;orthogonalLoop=1;jettySize=auto;html=1;exitX=0;exitY=0;exitDx=0;exitDy=0;entryX=0.079;entryY=-0.017;entryDx=0;entryDy=0;entryPerimeter=0;" parent="1" source="d_Lw-T-FiMXY5c3B9-YE-28" target="d_Lw-T-FiMXY5c3B9-YE-30" edge="1">
          <mxGeometry relative="1" as="geometry" />
        </mxCell>
        <mxCell id="d_Lw-T-FiMXY5c3B9-YE-28" value="&lt;font style=&quot;font-size: 20px;&quot;&gt;进程B&lt;/font&gt;" style="whiteSpace=wrap;html=1;aspect=fixed;flipH=1;flipV=1;" parent="1" vertex="1">
          <mxGeometry x="1110" y="190" width="80" height="80" as="geometry" />
        </mxCell>
        <mxCell id="d_Lw-T-FiMXY5c3B9-YE-29" value="&lt;font style=&quot;font-size: 20px;&quot;&gt;...&lt;/font&gt;" style="rounded=0;whiteSpace=wrap;html=1;flipH=1;flipV=1;" parent="1" vertex="1">
          <mxGeometry x="920" y="190" width="120" height="40" as="geometry" />
        </mxCell>
        <mxCell id="d_Lw-T-FiMXY5c3B9-YE-30" value="&lt;font style=&quot;font-size: 20px;&quot;&gt;进程地址空间&lt;br&gt;mm_struct&lt;br&gt;&lt;/font&gt;" style="text;html=1;align=center;verticalAlign=middle;resizable=0;points=[];autosize=1;strokeColor=none;fillColor=none;flipH=1;flipV=1;" parent="1" vertex="1">
          <mxGeometry x="910" y="130" width="140" height="60" as="geometry" />
        </mxCell>
        <mxCell id="d_Lw-T-FiMXY5c3B9-YE-31" value="&lt;font style=&quot;font-size: 20px;&quot;&gt;task_struct&lt;/font&gt;" style="text;html=1;align=center;verticalAlign=middle;resizable=0;points=[];autosize=1;strokeColor=none;fillColor=none;flipH=0;flipV=0;" parent="1" vertex="1">
          <mxGeometry x="1090" y="150" width="120" height="40" as="geometry" />
        </mxCell>
        <mxCell id="d_Lw-T-FiMXY5c3B9-YE-32" value="&lt;font style=&quot;font-size: 20px;&quot;&gt;...&lt;/font&gt;" style="rounded=0;whiteSpace=wrap;html=1;flipH=1;flipV=1;" parent="1" vertex="1">
          <mxGeometry x="920" y="270" width="120" height="40" as="geometry" />
        </mxCell>
        <mxCell id="d_Lw-T-FiMXY5c3B9-YE-33" value="&lt;span style=&quot;font-size: 20px;&quot;&gt;共享内存&lt;/span&gt;" style="rounded=0;whiteSpace=wrap;html=1;flipH=1;flipV=1;" parent="1" vertex="1">
          <mxGeometry x="920" y="230" width="120" height="40" as="geometry" />
        </mxCell>
        <mxCell id="d_Lw-T-FiMXY5c3B9-YE-34" value="" style="rounded=0;whiteSpace=wrap;html=1;flipH=1;flipV=1;" parent="1" vertex="1">
          <mxGeometry x="800" y="270" width="40" height="20" as="geometry" />
        </mxCell>
        <mxCell id="d_Lw-T-FiMXY5c3B9-YE-35" value="&lt;font style=&quot;font-size: 20px;&quot;&gt;页表&lt;br&gt;&lt;/font&gt;" style="text;html=1;align=center;verticalAlign=middle;resizable=0;points=[];autosize=1;strokeColor=none;fillColor=none;flipH=1;flipV=1;" parent="1" vertex="1">
          <mxGeometry x="810" y="230" width="60" height="40" as="geometry" />
        </mxCell>
        <mxCell id="d_Lw-T-FiMXY5c3B9-YE-36" value="" style="rounded=0;whiteSpace=wrap;html=1;flipH=1;flipV=1;" parent="1" vertex="1">
          <mxGeometry x="840" y="270" width="40" height="20" as="geometry" />
        </mxCell>
        <mxCell id="d_Lw-T-FiMXY5c3B9-YE-37" value="" style="rounded=0;whiteSpace=wrap;html=1;flipH=1;flipV=1;" parent="1" vertex="1">
          <mxGeometry x="800" y="290" width="40" height="20" as="geometry" />
        </mxCell>
        <mxCell id="d_Lw-T-FiMXY5c3B9-YE-38" value="" style="rounded=0;whiteSpace=wrap;html=1;flipH=1;flipV=1;" parent="1" vertex="1">
          <mxGeometry x="840" y="290" width="40" height="20" as="geometry" />
        </mxCell>
        <mxCell id="d_Lw-T-FiMXY5c3B9-YE-39" value="" style="rounded=0;whiteSpace=wrap;html=1;flipH=1;flipV=1;" parent="1" vertex="1">
          <mxGeometry x="800" y="310" width="40" height="20" as="geometry" />
        </mxCell>
        <mxCell id="d_Lw-T-FiMXY5c3B9-YE-40" value="" style="rounded=0;whiteSpace=wrap;html=1;flipH=1;flipV=1;" parent="1" vertex="1">
          <mxGeometry x="840" y="310" width="40" height="20" as="geometry" />
        </mxCell>
        <mxCell id="d_Lw-T-FiMXY5c3B9-YE-41" value="" style="rounded=0;whiteSpace=wrap;html=1;flipH=1;flipV=1;" parent="1" vertex="1">
          <mxGeometry x="800" y="330" width="40" height="20" as="geometry" />
        </mxCell>
        <mxCell id="d_Lw-T-FiMXY5c3B9-YE-42" value="" style="rounded=0;whiteSpace=wrap;html=1;flipH=1;flipV=1;" parent="1" vertex="1">
          <mxGeometry x="840" y="330" width="40" height="20" as="geometry" />
        </mxCell>
        <mxCell id="d_Lw-T-FiMXY5c3B9-YE-50" style="rounded=0;orthogonalLoop=1;jettySize=auto;html=1;exitX=1;exitY=0;exitDx=0;exitDy=0;entryX=0;entryY=0.5;entryDx=0;entryDy=0;targetPerimeterSpacing=6;sourcePerimeterSpacing=6;startArrow=none;startFill=0;endArrow=classic;endFill=1;" parent="1" source="d_Lw-T-FiMXY5c3B9-YE-20" target="d_Lw-T-FiMXY5c3B9-YE-15" edge="1">
          <mxGeometry relative="1" as="geometry">
            <mxPoint x="550" y="220" as="sourcePoint" />
            <mxPoint x="510" y="200" as="targetPoint" />
          </mxGeometry>
        </mxCell>
        <mxCell id="d_Lw-T-FiMXY5c3B9-YE-51" style="rounded=0;orthogonalLoop=1;jettySize=auto;html=1;exitX=0;exitY=0;exitDx=0;exitDy=0;entryX=1;entryY=0.5;entryDx=0;entryDy=0;targetPerimeterSpacing=6;sourcePerimeterSpacing=6;startArrow=none;startFill=0;" parent="1" source="d_Lw-T-FiMXY5c3B9-YE-34" target="d_Lw-T-FiMXY5c3B9-YE-15" edge="1">
          <mxGeometry relative="1" as="geometry">
            <mxPoint x="780" y="230" as="sourcePoint" />
            <mxPoint x="740" y="210" as="targetPoint" />
          </mxGeometry>
        </mxCell>
        <mxCell id="d_Lw-T-FiMXY5c3B9-YE-52" style="rounded=0;orthogonalLoop=1;jettySize=auto;html=1;exitX=1;exitY=0;exitDx=0;exitDy=0;entryX=0;entryY=0;entryDx=0;entryDy=0;targetPerimeterSpacing=6;sourcePerimeterSpacing=6;startArrow=classic;startFill=1;endArrow=none;endFill=0;" parent="1" source="d_Lw-T-FiMXY5c3B9-YE-36" target="d_Lw-T-FiMXY5c3B9-YE-33" edge="1">
          <mxGeometry relative="1" as="geometry">
            <mxPoint x="810" y="280" as="sourcePoint" />
            <mxPoint x="730" y="250" as="targetPoint" />
          </mxGeometry>
        </mxCell>
        <mxCell id="rgSda22hF-nhAcSKTV3Q-1" style="rounded=0;orthogonalLoop=1;jettySize=auto;html=1;exitX=1;exitY=0;exitDx=0;exitDy=0;entryX=0;entryY=0;entryDx=0;entryDy=0;" edge="1" parent="1" source="rgSda22hF-nhAcSKTV3Q-2" target="rgSda22hF-nhAcSKTV3Q-3">
          <mxGeometry relative="1" as="geometry" />
        </mxCell>
        <mxCell id="rgSda22hF-nhAcSKTV3Q-2" value="&lt;font style=&quot;font-size: 20px;&quot;&gt;进程A&lt;/font&gt;" style="whiteSpace=wrap;html=1;aspect=fixed;" vertex="1" parent="1">
          <mxGeometry x="200" y="540" width="80" height="80" as="geometry" />
        </mxCell>
        <mxCell id="rgSda22hF-nhAcSKTV3Q-76" style="rounded=0;orthogonalLoop=1;jettySize=auto;html=1;exitX=1;exitY=0.5;exitDx=0;exitDy=0;entryX=0;entryY=0;entryDx=0;entryDy=0;" edge="1" parent="1" source="rgSda22hF-nhAcSKTV3Q-3" target="rgSda22hF-nhAcSKTV3Q-67">
          <mxGeometry relative="1" as="geometry" />
        </mxCell>
        <mxCell id="rgSda22hF-nhAcSKTV3Q-3" value="" style="rounded=0;whiteSpace=wrap;html=1;" vertex="1" parent="1">
          <mxGeometry x="339" y="540" width="120" height="130" as="geometry" />
        </mxCell>
        <mxCell id="rgSda22hF-nhAcSKTV3Q-4" value="&lt;font style=&quot;font-size: 20px;&quot;&gt;进程地址空间&lt;br&gt;mm_struct&lt;br&gt;&lt;/font&gt;" style="text;html=1;align=center;verticalAlign=middle;resizable=0;points=[];autosize=1;strokeColor=none;fillColor=none;" vertex="1" parent="1">
          <mxGeometry x="329" y="485" width="140" height="60" as="geometry" />
        </mxCell>
        <mxCell id="rgSda22hF-nhAcSKTV3Q-5" value="&lt;font style=&quot;font-size: 20px;&quot;&gt;task_struct&lt;/font&gt;" style="text;html=1;align=center;verticalAlign=middle;resizable=0;points=[];autosize=1;strokeColor=none;fillColor=none;" vertex="1" parent="1">
          <mxGeometry x="174" y="500" width="120" height="40" as="geometry" />
        </mxCell>
        <mxCell id="rgSda22hF-nhAcSKTV3Q-6" value="&lt;font style=&quot;font-size: 13px;&quot;&gt;命令行参数环境变量&lt;/font&gt;" style="rounded=0;whiteSpace=wrap;html=1;fontSize=13;" vertex="1" parent="1">
          <mxGeometry x="339" y="667" width="120" height="40" as="geometry" />
        </mxCell>
        <mxCell id="rgSda22hF-nhAcSKTV3Q-7" value="已初始化变量" style="rounded=0;whiteSpace=wrap;html=1;fontSize=17;" vertex="1" parent="1">
          <mxGeometry x="339" y="945" width="120" height="40" as="geometry" />
        </mxCell>
        <mxCell id="rgSda22hF-nhAcSKTV3Q-8" value="&lt;span style=&quot;font-size: 20px;&quot;&gt;&lt;font color=&quot;#ff0000&quot;&gt;内核&lt;/font&gt;代码和数据&lt;/span&gt;" style="rounded=0;whiteSpace=wrap;html=1;" vertex="1" parent="1">
          <mxGeometry x="880" y="642" width="120" height="80" as="geometry" />
        </mxCell>
        <mxCell id="rgSda22hF-nhAcSKTV3Q-9" value="&lt;font style=&quot;font-size: 20px;&quot;&gt;物理内存&lt;br&gt;&lt;/font&gt;" style="text;html=1;align=center;verticalAlign=middle;resizable=0;points=[];autosize=1;strokeColor=none;fillColor=none;" vertex="1" parent="1">
          <mxGeometry x="890" y="602" width="100" height="40" as="geometry" />
        </mxCell>
        <mxCell id="rgSda22hF-nhAcSKTV3Q-10" value="&lt;font style=&quot;font-size: 20px;&quot;&gt;&lt;font color=&quot;#0000ff&quot;&gt;进程&lt;/font&gt;代码和数据&lt;/font&gt;" style="rounded=0;whiteSpace=wrap;html=1;" vertex="1" parent="1">
          <mxGeometry x="880" y="802" width="120" height="80" as="geometry" />
        </mxCell>
        <mxCell id="rgSda22hF-nhAcSKTV3Q-11" value="&lt;span style=&quot;font-size: 20px;&quot;&gt;...&lt;/span&gt;" style="rounded=0;whiteSpace=wrap;html=1;" vertex="1" parent="1">
          <mxGeometry x="880" y="722" width="120" height="80" as="geometry" />
        </mxCell>
        <mxCell id="rgSda22hF-nhAcSKTV3Q-13" value="" style="rounded=0;whiteSpace=wrap;html=1;" vertex="1" parent="1">
          <mxGeometry x="630" y="880" width="40" height="20" as="geometry" />
        </mxCell>
        <mxCell id="rgSda22hF-nhAcSKTV3Q-14" value="&lt;font style=&quot;font-size: 20px;&quot;&gt;&lt;font color=&quot;#0000ff&quot;&gt;用户&lt;/font&gt;级页表&lt;br&gt;&lt;/font&gt;" style="text;html=1;align=center;verticalAlign=middle;resizable=0;points=[];autosize=1;strokeColor=none;fillColor=none;" vertex="1" parent="1">
          <mxGeometry x="610" y="840" width="120" height="40" as="geometry" />
        </mxCell>
        <mxCell id="rgSda22hF-nhAcSKTV3Q-80" style="rounded=0;orthogonalLoop=1;jettySize=auto;html=1;exitX=1;exitY=0;exitDx=0;exitDy=0;" edge="1" parent="1" source="rgSda22hF-nhAcSKTV3Q-15" target="rgSda22hF-nhAcSKTV3Q-10">
          <mxGeometry relative="1" as="geometry" />
        </mxCell>
        <mxCell id="rgSda22hF-nhAcSKTV3Q-15" value="" style="rounded=0;whiteSpace=wrap;html=1;" vertex="1" parent="1">
          <mxGeometry x="670" y="880" width="40" height="20" as="geometry" />
        </mxCell>
        <mxCell id="rgSda22hF-nhAcSKTV3Q-16" value="" style="rounded=0;whiteSpace=wrap;html=1;" vertex="1" parent="1">
          <mxGeometry x="630" y="900" width="40" height="20" as="geometry" />
        </mxCell>
        <mxCell id="rgSda22hF-nhAcSKTV3Q-17" value="" style="rounded=0;whiteSpace=wrap;html=1;" vertex="1" parent="1">
          <mxGeometry x="670" y="900" width="40" height="20" as="geometry" />
        </mxCell>
        <mxCell id="rgSda22hF-nhAcSKTV3Q-18" value="" style="rounded=0;whiteSpace=wrap;html=1;" vertex="1" parent="1">
          <mxGeometry x="630" y="920" width="40" height="20" as="geometry" />
        </mxCell>
        <mxCell id="rgSda22hF-nhAcSKTV3Q-19" value="" style="rounded=0;whiteSpace=wrap;html=1;" vertex="1" parent="1">
          <mxGeometry x="670" y="920" width="40" height="20" as="geometry" />
        </mxCell>
        <mxCell id="rgSda22hF-nhAcSKTV3Q-20" value="" style="rounded=0;whiteSpace=wrap;html=1;" vertex="1" parent="1">
          <mxGeometry x="630" y="940" width="40" height="20" as="geometry" />
        </mxCell>
        <mxCell id="rgSda22hF-nhAcSKTV3Q-21" value="" style="rounded=0;whiteSpace=wrap;html=1;" vertex="1" parent="1">
          <mxGeometry x="670" y="940" width="40" height="20" as="geometry" />
        </mxCell>
        <mxCell id="rgSda22hF-nhAcSKTV3Q-41" value="&lt;font style=&quot;font-size: 20px;&quot;&gt;栈区&lt;/font&gt;" style="rounded=0;whiteSpace=wrap;html=1;" vertex="1" parent="1">
          <mxGeometry x="339" y="705" width="120" height="40" as="geometry" />
        </mxCell>
        <mxCell id="rgSda22hF-nhAcSKTV3Q-78" style="rounded=0;orthogonalLoop=1;jettySize=auto;html=1;exitX=1;exitY=0.5;exitDx=0;exitDy=0;entryX=0;entryY=0;entryDx=0;entryDy=0;" edge="1" parent="1" source="rgSda22hF-nhAcSKTV3Q-42" target="rgSda22hF-nhAcSKTV3Q-13">
          <mxGeometry relative="1" as="geometry" />
        </mxCell>
        <mxCell id="rgSda22hF-nhAcSKTV3Q-42" value="&lt;font style=&quot;font-size: 17px;&quot;&gt;未初始化变量&lt;/font&gt;" style="rounded=0;whiteSpace=wrap;html=1;fontSize=17;" vertex="1" parent="1">
          <mxGeometry x="339" y="905" width="120" height="40" as="geometry" />
        </mxCell>
        <mxCell id="rgSda22hF-nhAcSKTV3Q-43" value="&lt;font style=&quot;font-size: 20px;&quot;&gt;堆区&lt;/font&gt;" style="rounded=0;whiteSpace=wrap;html=1;" vertex="1" parent="1">
          <mxGeometry x="339" y="865" width="120" height="40" as="geometry" />
        </mxCell>
        <mxCell id="rgSda22hF-nhAcSKTV3Q-44" value="&lt;font style=&quot;font-size: 20px;&quot;&gt;↑&lt;/font&gt;" style="rounded=0;whiteSpace=wrap;html=1;" vertex="1" parent="1">
          <mxGeometry x="339" y="825" width="120" height="40" as="geometry" />
        </mxCell>
        <mxCell id="rgSda22hF-nhAcSKTV3Q-45" value="&lt;font style=&quot;font-size: 20px;&quot;&gt;共享区&lt;/font&gt;" style="rounded=0;whiteSpace=wrap;html=1;" vertex="1" parent="1">
          <mxGeometry x="339" y="785" width="120" height="40" as="geometry" />
        </mxCell>
        <mxCell id="rgSda22hF-nhAcSKTV3Q-46" value="&lt;font style=&quot;font-size: 20px;&quot;&gt;↓&lt;/font&gt;" style="rounded=0;whiteSpace=wrap;html=1;" vertex="1" parent="1">
          <mxGeometry x="339" y="745" width="120" height="40" as="geometry" />
        </mxCell>
        <mxCell id="rgSda22hF-nhAcSKTV3Q-79" style="rounded=0;orthogonalLoop=1;jettySize=auto;html=1;exitX=1;exitY=0.5;exitDx=0;exitDy=0;entryX=0;entryY=0;entryDx=0;entryDy=0;" edge="1" parent="1" source="rgSda22hF-nhAcSKTV3Q-49" target="rgSda22hF-nhAcSKTV3Q-20">
          <mxGeometry relative="1" as="geometry" />
        </mxCell>
        <mxCell id="rgSda22hF-nhAcSKTV3Q-49" value="&lt;font style=&quot;font-size: 20px;&quot;&gt;代码段&lt;/font&gt;" style="rounded=0;whiteSpace=wrap;html=1;" vertex="1" parent="1">
          <mxGeometry x="339" y="985" width="120" height="40" as="geometry" />
        </mxCell>
        <mxCell id="rgSda22hF-nhAcSKTV3Q-50" value="&lt;font face=&quot;Times New Roman&quot; style=&quot;font-size: 20px;&quot;&gt;0&lt;/font&gt;" style="text;html=1;align=center;verticalAlign=middle;resizable=0;points=[];autosize=1;strokeColor=none;fillColor=none;fontSize=20;" vertex="1" parent="1">
          <mxGeometry x="466" y="1000" width="28" height="37" as="geometry" />
        </mxCell>
        <mxCell id="rgSda22hF-nhAcSKTV3Q-51" value="&lt;font face=&quot;Times New Roman&quot; style=&quot;font-size: 20px;&quot;&gt;3G&lt;/font&gt;" style="text;html=1;align=center;verticalAlign=middle;resizable=0;points=[];autosize=1;strokeColor=none;fillColor=none;fontSize=20;" vertex="1" parent="1">
          <mxGeometry x="459" y="651" width="42" height="37" as="geometry" />
        </mxCell>
        <mxCell id="rgSda22hF-nhAcSKTV3Q-52" value="&lt;font face=&quot;Times New Roman&quot; style=&quot;font-size: 20px;&quot;&gt;4G&lt;/font&gt;" style="text;html=1;align=center;verticalAlign=middle;resizable=0;points=[];autosize=1;strokeColor=none;fillColor=none;fontSize=20;" vertex="1" parent="1">
          <mxGeometry x="459" y="518.5" width="42" height="37" as="geometry" />
        </mxCell>
        <mxCell id="rgSda22hF-nhAcSKTV3Q-53" value="" style="endArrow=classic;startArrow=classic;html=1;rounded=0;" edge="1" parent="1">
          <mxGeometry width="50" height="50" relative="1" as="geometry">
            <mxPoint x="320" y="1030" as="sourcePoint" />
            <mxPoint x="320" y="667" as="targetPoint" />
          </mxGeometry>
        </mxCell>
        <mxCell id="rgSda22hF-nhAcSKTV3Q-55" value="&lt;font face=&quot;Times New Roman&quot;&gt;&lt;font color=&quot;#0000ff&quot;&gt;用&lt;br&gt;户&lt;/font&gt;&lt;br&gt;空&lt;br&gt;间&lt;/font&gt;" style="text;html=1;align=center;verticalAlign=middle;resizable=0;points=[];autosize=1;strokeColor=none;fillColor=none;fontSize=20;" vertex="1" parent="1">
          <mxGeometry x="280" y="795" width="40" height="110" as="geometry" />
        </mxCell>
        <mxCell id="rgSda22hF-nhAcSKTV3Q-56" value="" style="endArrow=classic;startArrow=classic;html=1;rounded=0;" edge="1" parent="1">
          <mxGeometry width="50" height="50" relative="1" as="geometry">
            <mxPoint x="320.5" y="670" as="sourcePoint" />
            <mxPoint x="320" y="540" as="targetPoint" />
          </mxGeometry>
        </mxCell>
        <mxCell id="rgSda22hF-nhAcSKTV3Q-57" value="&lt;font face=&quot;Times New Roman&quot;&gt;&lt;font color=&quot;#ff0000&quot;&gt;内&lt;br&gt;核&lt;/font&gt;&lt;br&gt;空&lt;br&gt;间&lt;/font&gt;" style="text;html=1;align=center;verticalAlign=middle;resizable=0;points=[];autosize=1;strokeColor=none;fillColor=none;fontSize=20;" vertex="1" parent="1">
          <mxGeometry x="280" y="547" width="40" height="110" as="geometry" />
        </mxCell>
        <mxCell id="rgSda22hF-nhAcSKTV3Q-67" value="" style="rounded=0;whiteSpace=wrap;html=1;" vertex="1" parent="1">
          <mxGeometry x="630" y="582" width="40" height="20" as="geometry" />
        </mxCell>
        <mxCell id="rgSda22hF-nhAcSKTV3Q-68" value="&lt;font style=&quot;font-size: 20px;&quot;&gt;&lt;font color=&quot;#ff0000&quot;&gt;内核&lt;/font&gt;级页表&lt;br&gt;&lt;/font&gt;" style="text;html=1;align=center;verticalAlign=middle;resizable=0;points=[];autosize=1;strokeColor=none;fillColor=none;" vertex="1" parent="1">
          <mxGeometry x="610" y="542" width="120" height="40" as="geometry" />
        </mxCell>
        <mxCell id="rgSda22hF-nhAcSKTV3Q-81" style="rounded=0;orthogonalLoop=1;jettySize=auto;html=1;exitX=1;exitY=0;exitDx=0;exitDy=0;entryX=0;entryY=0.5;entryDx=0;entryDy=0;" edge="1" parent="1" source="rgSda22hF-nhAcSKTV3Q-69" target="rgSda22hF-nhAcSKTV3Q-8">
          <mxGeometry relative="1" as="geometry" />
        </mxCell>
        <mxCell id="rgSda22hF-nhAcSKTV3Q-69" value="" style="rounded=0;whiteSpace=wrap;html=1;" vertex="1" parent="1">
          <mxGeometry x="670" y="582" width="40" height="20" as="geometry" />
        </mxCell>
        <mxCell id="rgSda22hF-nhAcSKTV3Q-70" value="" style="rounded=0;whiteSpace=wrap;html=1;" vertex="1" parent="1">
          <mxGeometry x="630" y="602" width="40" height="20" as="geometry" />
        </mxCell>
        <mxCell id="rgSda22hF-nhAcSKTV3Q-71" value="" style="rounded=0;whiteSpace=wrap;html=1;" vertex="1" parent="1">
          <mxGeometry x="670" y="602" width="40" height="20" as="geometry" />
        </mxCell>
        <mxCell id="rgSda22hF-nhAcSKTV3Q-72" value="" style="rounded=0;whiteSpace=wrap;html=1;" vertex="1" parent="1">
          <mxGeometry x="630" y="622" width="40" height="20" as="geometry" />
        </mxCell>
        <mxCell id="rgSda22hF-nhAcSKTV3Q-73" value="" style="rounded=0;whiteSpace=wrap;html=1;" vertex="1" parent="1">
          <mxGeometry x="670" y="622" width="40" height="20" as="geometry" />
        </mxCell>
        <mxCell id="rgSda22hF-nhAcSKTV3Q-74" value="" style="rounded=0;whiteSpace=wrap;html=1;" vertex="1" parent="1">
          <mxGeometry x="630" y="642" width="40" height="20" as="geometry" />
        </mxCell>
        <mxCell id="rgSda22hF-nhAcSKTV3Q-75" value="" style="rounded=0;whiteSpace=wrap;html=1;" vertex="1" parent="1">
          <mxGeometry x="670" y="642" width="40" height="20" as="geometry" />
        </mxCell>
        <mxCell id="rgSda22hF-nhAcSKTV3Q-84" value="&lt;font color=&quot;#0000ff&quot; style=&quot;font-size: 20px;&quot;&gt;用户态&lt;/font&gt;" style="text;html=1;strokeColor=none;fillColor=none;align=center;verticalAlign=middle;whiteSpace=wrap;rounded=0;" vertex="1" parent="1">
          <mxGeometry x="26" y="1150" width="154" height="30" as="geometry" />
        </mxCell>
        <mxCell id="rgSda22hF-nhAcSKTV3Q-85" value="&lt;font color=&quot;#0000ff&quot; style=&quot;font-size: 20px;&quot;&gt;内核态&lt;/font&gt;" style="text;html=1;strokeColor=none;fillColor=none;align=center;verticalAlign=middle;whiteSpace=wrap;rounded=0;" vertex="1" parent="1">
          <mxGeometry x="23" y="1664" width="154" height="30" as="geometry" />
        </mxCell>
        <mxCell id="rgSda22hF-nhAcSKTV3Q-86" value="&lt;font face=&quot;Courier New&quot;&gt;&lt;span style=&quot;font-size: 20px;&quot;&gt;1. 在main函数中调用了系统接口或遇到了中断、异常陷入内核&lt;/span&gt;&lt;/font&gt;" style="text;html=1;strokeColor=none;fillColor=none;align=left;verticalAlign=middle;whiteSpace=wrap;rounded=0;" vertex="1" parent="1">
          <mxGeometry x="118" y="1202" width="174" height="154" as="geometry" />
        </mxCell>
        <mxCell id="rgSda22hF-nhAcSKTV3Q-87" value="&lt;font face=&quot;Courier New&quot; style=&quot;font-size: 20px;&quot;&gt;&lt;font style=&quot;font-size: 20px;&quot;&gt;2. 内核程序执行完毕，&lt;/font&gt;检查 pending 信号集，以确定是否有信号需要传递给进程&lt;/font&gt;" style="text;html=1;strokeColor=none;fillColor=none;align=left;verticalAlign=middle;whiteSpace=wrap;rounded=0;" vertex="1" parent="1">
          <mxGeometry x="118" y="1467" width="205" height="154" as="geometry" />
        </mxCell>
        <mxCell id="rgSda22hF-nhAcSKTV3Q-88" value="&lt;font color=&quot;#b3b3b3&quot;&gt;系&lt;br&gt;统&lt;br&gt;调&lt;br&gt;用&lt;br&gt;代&lt;br&gt;码&lt;br&gt;属&lt;br&gt;于&lt;br&gt;内&lt;br&gt;核&lt;/font&gt;" style="text;html=1;align=center;verticalAlign=middle;resizable=0;points=[];autosize=1;strokeColor=none;fillColor=none;" vertex="1" parent="1">
          <mxGeometry x="174" y="1328" width="30" height="156" as="geometry" />
        </mxCell>
        <mxCell id="rgSda22hF-nhAcSKTV3Q-89" value="&lt;font face=&quot;Courier New&quot;&gt;&lt;span style=&quot;font-size: 20px;&quot;&gt;执行流（main函数）&lt;br&gt;{&lt;br&gt;&amp;nbsp; &amp;nbsp; 1. xxx&lt;br&gt;&amp;nbsp; &amp;nbsp; 2. xxx&lt;br&gt;&amp;nbsp; &amp;nbsp; 3. xxx&lt;br&gt;}&lt;br&gt;&lt;/span&gt;&lt;/font&gt;" style="text;html=1;strokeColor=none;fillColor=none;align=left;verticalAlign=middle;whiteSpace=wrap;rounded=0;" vertex="1" parent="1">
          <mxGeometry x="443" y="1177" width="199" height="171" as="geometry" />
        </mxCell>
        <mxCell id="rgSda22hF-nhAcSKTV3Q-90" value="&lt;font face=&quot;Courier New&quot;&gt;&lt;span style=&quot;font-size: 20px;&quot;&gt;3. 若信号的处理动作是默认，则处理完毕后切换回用户态，从上次中断的地方继续&lt;/span&gt;&lt;/font&gt;" style="text;html=1;strokeColor=none;fillColor=none;align=left;verticalAlign=middle;whiteSpace=wrap;rounded=0;" vertex="1" parent="1">
          <mxGeometry x="687" y="1467" width="205" height="154" as="geometry" />
        </mxCell>
        <mxCell id="rgSda22hF-nhAcSKTV3Q-92" value="" style="endArrow=classic;html=1;rounded=0;entryX=1.008;entryY=0.319;entryDx=0;entryDy=0;entryPerimeter=0;" edge="1" parent="1" target="rgSda22hF-nhAcSKTV3Q-86">
          <mxGeometry width="50" height="50" relative="1" as="geometry">
            <mxPoint x="494" y="1251" as="sourcePoint" />
            <mxPoint x="323" y="1251" as="targetPoint" />
          </mxGeometry>
        </mxCell>
        <mxCell id="rgSda22hF-nhAcSKTV3Q-95" value="" style="endArrow=classic;html=1;rounded=0;" edge="1" parent="1">
          <mxGeometry width="50" height="50" relative="1" as="geometry">
            <mxPoint x="204.41" y="1351" as="sourcePoint" />
            <mxPoint x="204.41" y="1478" as="targetPoint" />
          </mxGeometry>
        </mxCell>
        <mxCell id="rgSda22hF-nhAcSKTV3Q-96" value="" style="endArrow=classic;html=1;rounded=0;" edge="1" parent="1">
          <mxGeometry width="50" height="50" relative="1" as="geometry">
            <mxPoint x="398" y="1548" as="sourcePoint" />
            <mxPoint x="582" y="1548" as="targetPoint" />
          </mxGeometry>
        </mxCell>
        <mxCell id="rgSda22hF-nhAcSKTV3Q-99" value="" style="endArrow=classic;html=1;rounded=0;entryX=1.008;entryY=0.319;entryDx=0;entryDy=0;entryPerimeter=0;exitX=0.5;exitY=0;exitDx=0;exitDy=0;" edge="1" parent="1" source="rgSda22hF-nhAcSKTV3Q-90">
          <mxGeometry width="50" height="50" relative="1" as="geometry">
            <mxPoint x="765.5" y="1276" as="sourcePoint" />
            <mxPoint x="564.5" y="1276" as="targetPoint" />
            <Array as="points">
              <mxPoint x="790" y="1276" />
            </Array>
          </mxGeometry>
        </mxCell>
        <mxCell id="rgSda22hF-nhAcSKTV3Q-102" value="" style="rounded=0;whiteSpace=wrap;html=1;" vertex="1" parent="1">
          <mxGeometry x="83" y="2008" width="1287" height="273" as="geometry" />
        </mxCell>
        <mxCell id="rgSda22hF-nhAcSKTV3Q-103" value="" style="rounded=0;whiteSpace=wrap;html=1;" vertex="1" parent="1">
          <mxGeometry x="83" y="1735" width="1287" height="273" as="geometry" />
        </mxCell>
        <mxCell id="rgSda22hF-nhAcSKTV3Q-104" value="&lt;font face=&quot;Courier New&quot;&gt;&lt;span style=&quot;font-size: 20px;&quot;&gt;1. 在main函数中调用了系统接口或遇到了中断、异常陷入内核&lt;/span&gt;&lt;/font&gt;" style="text;html=1;strokeColor=none;fillColor=none;align=left;verticalAlign=middle;whiteSpace=wrap;rounded=0;" vertex="1" parent="1">
          <mxGeometry x="134" y="1789" width="174" height="154" as="geometry" />
        </mxCell>
        <mxCell id="rgSda22hF-nhAcSKTV3Q-105" value="&lt;font face=&quot;Courier New&quot; style=&quot;font-size: 20px;&quot;&gt;&lt;font style=&quot;font-size: 20px;&quot;&gt;2. 内核程序执行完毕，&lt;/font&gt;检查 pending 信号集，以确定是否有信号需要传递给进程&lt;/font&gt;" style="text;html=1;strokeColor=none;fillColor=none;align=left;verticalAlign=middle;whiteSpace=wrap;rounded=0;" vertex="1" parent="1">
          <mxGeometry x="134" y="2054" width="205" height="154" as="geometry" />
        </mxCell>
        <mxCell id="rgSda22hF-nhAcSKTV3Q-106" value="&lt;font color=&quot;#b3b3b3&quot;&gt;系&lt;br&gt;统&lt;br&gt;调&lt;br&gt;用&lt;br&gt;代&lt;br&gt;码&lt;br&gt;属&lt;br&gt;于&lt;br&gt;内&lt;br&gt;核&lt;/font&gt;" style="text;html=1;align=center;verticalAlign=middle;resizable=0;points=[];autosize=1;strokeColor=none;fillColor=none;" vertex="1" parent="1">
          <mxGeometry x="190" y="1915" width="30" height="156" as="geometry" />
        </mxCell>
        <mxCell id="rgSda22hF-nhAcSKTV3Q-107" value="&lt;font face=&quot;Courier New&quot;&gt;&lt;span style=&quot;font-size: 20px;&quot;&gt;执行流（main函数）&lt;br&gt;{&lt;br&gt;&amp;nbsp; &amp;nbsp; 1. xxx&lt;br&gt;&amp;nbsp; &amp;nbsp; 2. xxx&lt;br&gt;&amp;nbsp; &amp;nbsp; 3. xxx&lt;br&gt;}&lt;br&gt;&lt;/span&gt;&lt;/font&gt;" style="text;html=1;strokeColor=none;fillColor=none;align=left;verticalAlign=middle;whiteSpace=wrap;rounded=0;" vertex="1" parent="1">
          <mxGeometry x="459" y="1764" width="199" height="171" as="geometry" />
        </mxCell>
        <mxCell id="rgSda22hF-nhAcSKTV3Q-108" value="&lt;font face=&quot;Courier New&quot;&gt;&lt;span style=&quot;font-size: 20px;&quot;&gt;&lt;font color=&quot;#b3b3b3&quot;&gt;do_signal()&lt;/font&gt;&lt;br&gt;3. 若信号的处理动作是自定义处理动作，切换到用户态执行&lt;/span&gt;&lt;/font&gt;" style="text;html=1;strokeColor=none;fillColor=none;align=left;verticalAlign=middle;whiteSpace=wrap;rounded=0;" vertex="1" parent="1">
          <mxGeometry x="703" y="2054" width="205" height="154" as="geometry" />
        </mxCell>
        <mxCell id="rgSda22hF-nhAcSKTV3Q-109" value="" style="endArrow=classic;html=1;rounded=0;entryX=1.008;entryY=0.319;entryDx=0;entryDy=0;entryPerimeter=0;" edge="1" parent="1" target="rgSda22hF-nhAcSKTV3Q-104">
          <mxGeometry width="50" height="50" relative="1" as="geometry">
            <mxPoint x="510" y="1838" as="sourcePoint" />
            <mxPoint x="339" y="1838" as="targetPoint" />
          </mxGeometry>
        </mxCell>
        <mxCell id="rgSda22hF-nhAcSKTV3Q-110" value="" style="endArrow=classic;html=1;rounded=0;" edge="1" parent="1">
          <mxGeometry width="50" height="50" relative="1" as="geometry">
            <mxPoint x="220.41" y="1938" as="sourcePoint" />
            <mxPoint x="220.41" y="2065" as="targetPoint" />
          </mxGeometry>
        </mxCell>
        <mxCell id="rgSda22hF-nhAcSKTV3Q-111" value="" style="endArrow=classic;html=1;rounded=0;" edge="1" parent="1">
          <mxGeometry width="50" height="50" relative="1" as="geometry">
            <mxPoint x="414" y="2135" as="sourcePoint" />
            <mxPoint x="598" y="2135" as="targetPoint" />
          </mxGeometry>
        </mxCell>
        <mxCell id="rgSda22hF-nhAcSKTV3Q-113" value="&lt;font face=&quot;Courier New&quot;&gt;&lt;span style=&quot;font-size: 20px;&quot;&gt;&lt;font color=&quot;#b3b3b3&quot;&gt;handler()[用户自定义处理方式]&lt;/font&gt;&lt;br&gt;4. 执行完用户自定义程序后，通过系统调用回到内核态&lt;br&gt;&lt;/span&gt;&lt;/font&gt;" style="text;html=1;strokeColor=none;fillColor=none;align=left;verticalAlign=middle;whiteSpace=wrap;rounded=0;" vertex="1" parent="1">
          <mxGeometry x="1025" y="1761" width="333" height="150" as="geometry" />
        </mxCell>
        <mxCell id="rgSda22hF-nhAcSKTV3Q-122" style="edgeStyle=orthogonalEdgeStyle;rounded=0;orthogonalLoop=1;jettySize=auto;html=1;endArrow=none;endFill=0;" edge="1" parent="1" source="rgSda22hF-nhAcSKTV3Q-114">
          <mxGeometry relative="1" as="geometry">
            <mxPoint x="912" y="1863" as="targetPoint" />
            <Array as="points">
              <mxPoint x="941" y="2128" />
              <mxPoint x="941" y="1863" />
            </Array>
          </mxGeometry>
        </mxCell>
        <mxCell id="rgSda22hF-nhAcSKTV3Q-114" value="&lt;font style=&quot;font-size: 20px;&quot;&gt;&lt;font style=&quot;font-size: 20px;&quot; face=&quot;Courier New&quot;&gt;&lt;br&gt;5. 执行完系统调用程序后，&lt;/font&gt;&lt;span style=&quot;font-family: &amp;quot;Courier New&amp;quot;;&quot;&gt;切换为用户态，从上次中断的地方继续&lt;/span&gt;&lt;/font&gt;&lt;font face=&quot;Courier New&quot;&gt;&lt;span style=&quot;font-size: 20px;&quot;&gt;&lt;br&gt;&lt;/span&gt;&lt;/font&gt;" style="text;html=1;strokeColor=none;fillColor=none;align=left;verticalAlign=middle;whiteSpace=wrap;rounded=0;" vertex="1" parent="1">
          <mxGeometry x="1034" y="2051" width="333" height="154" as="geometry" />
        </mxCell>
        <mxCell id="rgSda22hF-nhAcSKTV3Q-115" value="&lt;font color=&quot;#b3b3b3&quot; face=&quot;Courier New&quot;&gt;sys_sigreturn()&lt;/font&gt;" style="text;html=1;align=center;verticalAlign=middle;resizable=0;points=[];autosize=1;strokeColor=none;fillColor=none;" vertex="1" parent="1">
          <mxGeometry x="1194" y="1974" width="126" height="27" as="geometry" />
        </mxCell>
        <mxCell id="rgSda22hF-nhAcSKTV3Q-117" value="" style="endArrow=classic;html=1;rounded=0;" edge="1" parent="1">
          <mxGeometry width="50" height="50" relative="1" as="geometry">
            <mxPoint x="1193" y="1935" as="sourcePoint" />
            <mxPoint x="1193" y="2062" as="targetPoint" />
          </mxGeometry>
        </mxCell>
        <mxCell id="rgSda22hF-nhAcSKTV3Q-118" value="" style="endArrow=classic;html=1;rounded=0;entryX=0;entryY=0.75;entryDx=0;entryDy=0;" edge="1" parent="1" target="rgSda22hF-nhAcSKTV3Q-113">
          <mxGeometry width="50" height="50" relative="1" as="geometry">
            <mxPoint x="902" y="2101" as="sourcePoint" />
            <mxPoint x="1086" y="2101" as="targetPoint" />
          </mxGeometry>
        </mxCell>
        <mxCell id="rgSda22hF-nhAcSKTV3Q-119" value="" style="endArrow=classic;html=1;rounded=0;entryX=1.008;entryY=0.319;entryDx=0;entryDy=0;entryPerimeter=0;" edge="1" parent="1">
          <mxGeometry width="50" height="50" relative="1" as="geometry">
            <mxPoint x="912" y="1863" as="sourcePoint" />
            <mxPoint x="583" y="1863" as="targetPoint" />
          </mxGeometry>
        </mxCell>
        <mxCell id="rgSda22hF-nhAcSKTV3Q-124" value="" style="endArrow=classic;html=1;rounded=0;" edge="1" parent="1">
          <mxGeometry width="50" height="50" relative="1" as="geometry">
            <mxPoint x="872" y="2028" as="sourcePoint" />
            <mxPoint x="939" y="2028" as="targetPoint" />
          </mxGeometry>
        </mxCell>
        <mxCell id="rgSda22hF-nhAcSKTV3Q-125" value="在切换之前检查 &lt;font face=&quot;Courier New&quot;&gt;pending&lt;/font&gt; 信号集" style="text;html=1;align=center;verticalAlign=middle;resizable=0;points=[];autosize=1;strokeColor=none;fillColor=none;" vertex="1" parent="1">
          <mxGeometry x="675" y="2015" width="195" height="27" as="geometry" />
        </mxCell>
        <mxCell id="rgSda22hF-nhAcSKTV3Q-126" value="&lt;font color=&quot;#0000ff&quot; style=&quot;font-size: 20px;&quot;&gt;用户态&lt;/font&gt;" style="text;html=1;strokeColor=none;fillColor=none;align=center;verticalAlign=middle;whiteSpace=wrap;rounded=0;" vertex="1" parent="1">
          <mxGeometry x="50" y="1739" width="154" height="30" as="geometry" />
        </mxCell>
        <mxCell id="rgSda22hF-nhAcSKTV3Q-127" value="&lt;font color=&quot;#0000ff&quot; style=&quot;font-size: 20px;&quot;&gt;内核态&lt;/font&gt;" style="text;html=1;strokeColor=none;fillColor=none;align=center;verticalAlign=middle;whiteSpace=wrap;rounded=0;" vertex="1" parent="1">
          <mxGeometry x="42" y="2251" width="154" height="30" as="geometry" />
        </mxCell>
      </root>
    </mxGraphModel>
  </diagram>
</mxfile>
